PathFileType	4	(X/Y/Z)	C:\Users\Basilio\Documents\Thesis Gigler\squatting_fais\c3dfiles\054\SLS_front_pre5\markers_experimental.trc
DataRate	CameraRate	NumFrames	NumMarkers	Units	OrigDataRate	OrigDataStartFrame	OrigNumFrames
200.000000	200.000000	4	61	mm	200.000000	1059	1413
Frame#	Time	FHD			LBHD			RBHD			C7			T10			CLAV			LSHO			LUUPA			LMUPA			LDUPA			LLEP			LMEP			LRAD			LUL			LRFIN			RSHO			RUPA1			RMUPA			RDUPA			RLEP			RMEP			RRAD			RUL			RUFIN			LASI			RASI			USACR			LSACR			RSACR			LTHI1			LTHI2			LTHI3			LTHI4			LLFC			LMFC			LTIB1			LTIB2			LTIB3			LTIB4			LLMAL			LMMAL			LHEE			LMT1			LMT2			LMT5			RTHI			RTHI2			RTHI3			RTHI4			RLFC			RMFC			RTIB1			RTIB2			RTIB3			RTIB4			RLMAL			RMMAL			RHEE			RMT1			RMT2			RMT5			
		X1	Y1	Z1	X2	Y2	Z2	X3	Y3	Z3	X4	Y4	Z4	X5	Y5	Z5	X6	Y6	Z6	X7	Y7	Z7	X8	Y8	Z8	X9	Y9	Z9	X10	Y10	Z10	X11	Y11	Z11	X12	Y12	Z12	X13	Y13	Z13	X14	Y14	Z14	X15	Y15	Z15	X16	Y16	Z16	X17	Y17	Z17	X18	Y18	Z18	X19	Y19	Z19	X20	Y20	Z20	X21	Y21	Z21	X22	Y22	Z22	X23	Y23	Z23	X24	Y24	Z24	X25	Y25	Z25	X26	Y26	Z26	X27	Y27	Z27	X28	Y28	Z28	X29	Y29	Z29	X30	Y30	Z30	X31	Y31	Z31	X32	Y32	Z32	X33	Y33	Z33	X34	Y34	Z34	X35	Y35	Z35	X36	Y36	Z36	X37	Y37	Z37	X38	Y38	Z38	X39	Y39	Z39	X40	Y40	Z40	X41	Y41	Z41	X42	Y42	Z42	X43	Y43	Z43	X44	Y44	Z44	X45	Y45	Z45	X46	Y46	Z46	X47	Y47	Z47	X48	Y48	Z48	X49	Y49	Z49	X50	Y50	Z50	X51	Y51	Z51	X52	Y52	Z52	X53	Y53	Z53	X54	Y54	Z54	X55	Y55	Z55	X56	Y56	Z56	X57	Y57	Z57	X58	Y58	Z58	X59	Y59	Z59	X60	Y60	Z60	X61	Y61	Z61	

1060	5.295	-209.3564910888672	1798.036499023438	-1055.319091796875	-367.3881835937501	1749.463989257813	-1136.609741210938	-393.4869079589845	1748.323852539063	-998.5869140625002	-431.0618896484376	1576.95263671875	-1060.756591796875	-466.1837768554689	1249.153686523438	-1066.599975585938	-285.5046691894532	1522.732299804688	-1060.2685546875	-355.5119018554688	1578.837036132813	-1210.928100585938	-193.7713317871094	1475.933471679688	-1333.04052734375	-164.6576080322266	1513.225830078125	-1319.510498046875	-125.12548828125	1473.598876953125	-1342.053466796875	-67.98245239257814	1481.510131835938	-1337.952392578125	-63.39545822143556	1415.113037109375	-1294.81201171875	184.6078796386719	1519.522583007813	-1259.234741210938	204.0958557128907	1488.812744140625	-1328.807250976563	276.8237304687501	1543.99072265625	-1276.81005859375	-360.3878784179688	1577.091674804688	-917.4686279296877	-201.7499694824219	1476.091918945313	-791.106628417969	-168.1032867431641	1508.1748046875	-804.913757324219	-132.2350616455078	1463.548095703125	-780.2515258789065	-88.09354400634767	1461.753540039063	-784.434265136719	-90.15993499755861	1402.12548828125	-831.520935058594	173.361328125	1515.08154296875	-892.7453613281252	178.7217864990235	1482.503540039063	-818.8916015625002	251.7767028808594	1542.60693359375	-881.1070556640627	-274.9969787597657	1066.738525390625	-1153.44580078125	-291.7814941406251	1123.578002929688	-908.2153320312502	-471.6454162597657	1154.878295898438	-1051.158203125	-471.0547180175782	1118.312255859375	-1071.811401367188	-477.1795654296876	1128.260864257813	-1016.183349609375	-344.1719665527344	812.913269042969	-1203.584350585938	-306.5128173828126	736.2965698242189	-1195.106811523438	-259.8898010253907	744.2025146484376	-1189.430053710938	-332.0245971679688	684.3368530273439	-1173.371704101563	-318.1707153320313	534.9862670898439	-1143.071411132813	-292.4879150390626	541.9723510742189	-1004.180541992188	-271.0295410156251	376.9591674804688	-1074.952880859375	-314.3273925781251	324.5393371582032	-1131.293701171875	-277.1413574218751	325.6845092773438	-1103.994750976563	-283.8286743164063	250.9481201171876	-1065.270385742188	-339.5009460449219	113.2248687744141	-1096.642333984375	-310.2766418457032	134.3877410888672	-1006.392456054688	-408.5101318359376	104.4900436401367	-1037.6591796875	-198.3264160156251	55.23003005981447	-1016.910034179688	-189.3540344238282	55.18459320068361	-1066.182250976563	-242.271469116211	40.57933044433594	-1117.226928710938	-180.3713989257813	874.805847167969	-806.8590087890627	-115.0584335327149	862.5207519531252	-816.417419433594	-93.52317810058595	884.0572509765627	-828.9132080078127	-82.55411529541017	786.004577636719	-825.0249633789065	-36.63199996948243	708.3985595703126	-826.8575439453127	-16.68303108215332	727.0707397460939	-961.7837524414065	58.49905395507814	635.5139160156251	-838.6250000000002	28.76182556152344	541.3201904296876	-797.6751098632815	71.76216888427736	552.7344970703126	-812.9475097656252	103.4496154785157	512.7709960937501	-838.959655761719	123.0838088989258	330.8668823242188	-812.6805419921877	150.6631469726563	352.9432373046876	-901.7194824218752	84.39002227783205	268.2685241699219	-866.8116455078127	295.7273864746094	338.5509338378907	-877.663513183594	293.4738769531251	353.4385375976563	-831.6466064453127	254.3664855957032	323.2692565917969	-781.037292480469	
1061	5.3	-209.6287994384766	1797.908081054688	-1054.853149414063	-367.6802368164063	1749.324340820313	-1136.34619140625	-393.6044006347657	1748.300170898438	-998.349792480469	-431.2237548828126	1576.855102539063	-1060.505249023438	-466.095916748047	1249.063110351563	-1066.411865234375	-285.6494445800782	1522.704956054688	-1059.891479492188	-355.6027221679688	1578.716430664063	-1210.58251953125	-193.9531402587891	1475.9072265625	-1332.688232421875	-164.7750854492188	1513.150634765625	-1319.171630859375	-125.3276519775391	1473.595825195313	-1341.682250976563	-68.11779022216798	1481.532104492188	-1337.637451171875	-63.4042434692383	1415.145751953125	-1294.509765625	184.407699584961	1519.68212890625	-1258.949340820313	203.4180450439454	1489.141723632813	-1328.385498046875	276.8068237304688	1544.207275390625	-1276.45703125	-360.6811523437501	1577.051025390625	-917.1648559570315	-201.8493652343751	1476.004516601563	-790.849548339844	-168.3358306884766	1508.135009765625	-804.5512695312502	-132.4351806640625	1463.477783203125	-780.0434570312502	-88.2852020263672	1461.75830078125	-784.2055664062502	-90.32382202148439	1402.216796875	-831.147644042969	173.02392578125	1515.236694335938	-892.0496215820315	178.4412536621094	1482.509033203125	-818.5145263671877	251.4393310546876	1542.743041992188	-880.6130371093752	-274.6275329589844	1066.710815429688	-1152.993408203125	-292.0228881835938	1123.330444335938	-907.8286743164065	-471.5551757812501	1154.755615234375	-1051.057006835938	-470.9438476562501	1118.1826171875	-1071.733154296875	-477.2351379394532	1128.089477539063	-1016.110046386719	-343.7132568359376	812.909118652344	-1203.492797851563	-306.2437744140626	736.2999267578126	-1195.047973632813	-259.5437622070313	744.2450561523439	-1189.255737304688	-331.7171936035157	684.3028564453126	-1173.39111328125	-317.9357910156251	534.8964843750001	-1142.967651367188	-292.3973693847657	541.8983154296876	-1004.092346191406	-270.9537353515626	376.8874816894532	-1074.85693359375	-314.3665466308594	324.4609375000001	-1131.271850585938	-276.9957275390626	325.5967407226563	-1103.893920898438	-283.7612609863282	250.8282318115235	-1065.257690429688	-339.5074157714844	113.1862335205078	-1096.6240234375	-310.2981262207032	134.340316772461	-1006.417297363281	-408.526336669922	104.4306793212891	-1037.655029296875	-198.3440246582032	55.25573348999025	-1016.916198730469	-189.4051055908203	55.19138717651369	-1066.173461914063	-242.2357482910157	40.60027313232423	-1117.23828125	-180.8544006347657	874.3146972656252	-806.515563964844	-115.4961547851563	861.9057617187502	-815.783874511719	-93.82122039794923	883.6492309570315	-828.3840942382815	-83.05350494384767	785.4109497070315	-824.4272460937502	-36.99763107299805	708.0187988281251	-826.389343261719	-17.04879951477051	726.5675048828126	-961.2246093750002	58.03049087524415	635.0204467773439	-838.127136230469	28.2927474975586	540.9429321289064	-797.1697998046877	70.99111938476564	552.1170043945314	-812.2371826171877	102.7748336791992	512.2410278320314	-838.2531738281252	122.3844604492188	330.0688476562501	-812.0766601562502	150.0548858642578	352.3331298828126	-900.9257812500002	83.86073303222658	267.5777282714844	-866.3093872070315	295.1424255371094	337.9691467285157	-876.9499511718752	292.7151489257813	352.7472839355469	-830.7299804687502	253.7408294677735	322.4018859863282	-780.2552490234377	
1062	5.305	-209.7139892578126	1797.878540039063	-1054.512573242188	-367.7963562011719	1749.319458007813	-1136.050170898438	-393.7604980468751	1748.296020507813	-998.1109008789065	-431.3777465820314	1576.7548828125	-1060.152709960938	-466.1464233398439	1248.951538085938	-1066.277465820313	-285.6980895996094	1522.702026367188	-1059.52490234375	-355.7723083496094	1578.575927734375	-1210.248046875	-194.0841522216797	1475.827880859375	-1332.336059570313	-164.8526611328125	1513.16748046875	-1318.913696289063	-125.461669921875	1473.568481445313	-1341.293212890625	-68.31795501708986	1481.556762695313	-1337.23291015625	-63.44411087036134	1415.27392578125	-1294.089477539063	184.3419647216797	1519.84521484375	-1258.658447265625	203.2830352783204	1489.323120117188	-1328.06591796875	276.8202209472657	1544.4873046875	-1276.143920898438	-361.0661315917969	1576.975219726563	-916.8108520507815	-202.0193939208985	1475.805297851563	-790.9609985351565	-168.8111877441407	1508.120483398438	-804.0110473632815	-132.6613922119141	1463.443603515625	-779.606384277344	-88.65643310546876	1461.637939453125	-783.741394042969	-90.28796386718751	1402.359252929688	-830.326599121094	172.7275390625	1515.305541992188	-891.5169067382815	177.9204254150391	1482.600341796875	-817.966979980469	251.2673797607422	1542.831787109375	-879.996765136719	-274.2645263671876	1066.702758789063	-1152.6015625	-292.2090759277344	1123.14599609375	-907.3314208984377	-471.4001464843751	1154.60546875	-1050.97900390625	-470.7837524414064	1118.092651367188	-1071.684692382813	-477.2003173828126	1127.947509765625	-1016.096435546875	-343.3063964843751	812.8898925781252	-1203.375244140625	-305.8298645019532	736.3021240234376	-1194.959228515625	-259.1873474121094	744.2329711914064	-1189.051025390625	-331.3677978515626	684.2947998046876	-1173.382446289063	-317.5982055664063	534.8418579101564	-1142.96240234375	-292.0656433105469	541.9094848632814	-1004.129943847656	-270.8991699218751	376.7749023437501	-1074.751586914063	-314.2114562988282	324.4064331054688	-1131.232421875	-276.9882202148438	325.5366821289063	-1103.918701171875	-283.6746215820313	250.7479858398438	-1065.203002929688	-339.5410156250001	113.1712112426758	-1096.6494140625	-310.3240051269532	134.3196563720703	-1006.3623046875	-408.5157165527345	104.3929290771485	-1037.658813476563	-198.3542480468751	55.25367736816408	-1016.937316894531	-189.410400390625	55.25671386718751	-1066.185668945313	-242.2850494384766	40.62046432495118	-1117.257690429688	-181.12548828125	873.9810180664065	-806.1231689453127	-116.0382614135742	861.4397583007815	-815.060241699219	-94.08705139160158	883.139099121094	-827.9206542968752	-83.56429290771486	784.906188964844	-823.9454345703127	-37.43427658081055	707.4557495117189	-825.9522094726565	-17.55939865112305	725.9662475585939	-960.4460449218752	57.32519149780275	634.5366210937501	-837.3688964843752	27.60712051391602	540.3320922851564	-796.4613037109377	70.57369995117189	551.4409790039064	-811.601989746094	102.2801132202149	511.5996398925782	-837.7515869140627	121.6676177978516	329.5798339843751	-811.3778076171877	149.4795989990235	351.9060668945313	-900.283630371094	83.05208587646486	267.0837402343751	-865.7178344726565	294.3375244140626	337.3374328613282	-876.001647949219	291.9738464355469	352.2078552246094	-829.7861328125002	253.010482788086	321.8172302246094	-779.489685058594	
1063	5.31	-209.9538879394532	1797.863037109375	-1054.070678710938	-367.6743469238282	1749.230590820313	-1135.753540039063	-394.1673583984376	1748.343994140625	-997.710144042969	-431.6062316894532	1576.642333984375	-1059.723510742188	-466.2042846679689	1248.839111328125	-1066.086303710938	-285.9129943847657	1522.68359375	-1059.161254882813	-356.0208740234376	1578.4541015625	-1209.843994140625	-194.3001251220704	1475.802612304688	-1331.973266601563	-165.0701751708985	1513.21142578125	-1318.64501953125	-125.6570739746094	1473.59716796875	-1340.984375	-68.42763519287111	1481.586303710938	-1336.907836914063	-63.52471923828126	1415.282836914063	-1293.876708984375	184.2429504394532	1519.979125976563	-1258.334106445313	203.2646789550782	1489.493530273438	-1327.671508789063	276.7510681152344	1544.676391601563	-1275.782348632813	-361.2636413574219	1576.886596679688	-916.4606933593752	-202.3425598144532	1475.625	-790.4805908203127	-169.2010650634766	1508.038696289063	-803.4876708984377	-133.0192413330078	1463.347900390625	-779.096618652344	-89.0205535888672	1461.592407226563	-783.2031250000002	-90.49526977539064	1402.370239257813	-829.9489746093752	172.5586395263672	1515.3837890625	-891.0137939453127	177.8014373779297	1482.64794921875	-817.4031372070315	251.2076110839844	1542.852661132813	-879.4741210937502	-273.9242553710938	1066.785278320313	-1152.142456054688	-292.2596130371094	1122.962280273438	-906.9095458984377	-471.3497314453126	1154.456665039063	-1050.855346679688	-471.2678527832032	1118.136352539063	-1071.576293945313	-477.2311401367189	1127.776977539063	-1016.045532226563	-342.9318237304688	812.9497070312502	-1203.143920898438	-305.3959655761719	736.3111572265626	-1194.751708984375	-258.7433166503907	744.2817382812501	-1188.797607421875	-330.8854064941407	684.1720581054689	-1173.294067382813	-317.3377380371094	534.7956542968751	-1142.9228515625	-291.6554260253907	541.9167480468751	-1004.45654296875	-270.7437744140626	376.7528991699219	-1074.661865234375	-314.1011657714844	324.4533996582032	-1131.173095703125	-276.8934020996094	325.5015563964844	-1103.808349609375	-283.6524353027344	250.6847229003907	-1065.15087890625	-339.4442749023438	113.0417709350586	-1096.67919921875	-310.3602294921876	134.2688598632813	-1006.363830566406	-408.4016113281251	104.2779541015625	-1037.688354492188	-198.3441009521485	55.25241470336915	-1016.924865722656	-189.3773040771485	55.23745346069337	-1066.176025390625	-242.2303771972657	40.61846160888673	-1117.246215820313	-181.3916015625	873.7578735351565	-805.8543090820315	-116.494369506836	860.9753417968752	-814.559265136719	-94.46887969970705	882.5986938476565	-827.3538208007815	-84.00965881347658	784.5977783203127	-823.4058837890627	-38.05546951293946	706.8540039062501	-825.2468261718752	-17.31073951721192	725.3027343750001	-959.6529541015627	56.70921707153322	633.8076171875001	-836.471618652344	26.9929485321045	539.6149902343751	-795.797058105469	69.85874176025392	550.8587036132814	-810.9591064453127	101.654052734375	511.0325012207032	-837.174499511719	120.722885131836	328.9886474609376	-810.6455688476565	148.7422332763672	351.2714843750001	-899.6114501953127	82.12753295898439	266.5463562011719	-865.1621093750002	293.5809936523438	336.7356567382813	-875.1740722656252	291.3565368652344	351.4667663574219	-829.0776977539065	252.1956939697266	321.1902160644532	-778.7622680664065	
